# xmcd
#
# Track frame offsets:
#	150
#	28754
#	48332
#	68752
#	90880
#	108676
#	124752
#	144978
#	159053
#	179618
#	206978
#
# Disc length: 3069 seconds
#
# Revision: 1
# Processed by: cddbd v1.4PL0 Copyright (c) Steve Scherf et al.
# Submitted via: EasyCDDAExtractor 5.1.0
#
DISCID=930bfb0b
DTITLE=Quincy Jones - Best of Quincy Jones - Millennium Collection
DYEAR=2001
DGENRE=Soul
TTITLE0=Stuff Like That
TTITLE1=One Hundred Ways
TTITLE2=Superstition
TTITLE3=If I Ever Lose This Heaven
TTITLE4=Is It Love That We're Missin'
TTITLE5=I'm Gonna Miss You in the Morning
TTITLE6=Cast Your Fate to the Wind
TTITLE7=Sanford and Son Theme - "The Streetbeater"
TTITLE8=Just Once
TTITLE9=Everything Must Change
TTITLE10=Killer Joe
EXTD=
EXTT0=
EXTT1=
EXTT2=
EXTT3=
EXTT4=
EXTT5=
EXTT6=
EXTT7=
EXTT8=
EXTT9=
EXTT10=
PLAYORDER=
